  <svg
    xmlns="http://www.w3.org/2000/svg"
    width="30"
    height="33"
    fill="none"
    viewBox="0 0 30 33"
  >
    <path
      fill="white"
      d="m13.237 21.04 11.082-8.19c.543-.4 1.32-.244 1.578.38 1.363 3.288.754 7.241-1.957 9.955-2.71 2.714-6.482 3.31-9.93 1.954l-3.765 1.745c5.401 3.697 11.96 2.782 16.059-1.324 3.251-3.255 4.258-7.692 3.317-11.693l.008.009c-1.365-5.878.336-8.227 3.82-13.031.082-.114.165-.228.247-.345l-4.585 4.59v-.014L13.234 21.044M10.95 23.031c-3.877-3.707-3.208-9.446.1-12.755 2.446-2.449 6.454-3.448 9.952-1.979L24.76 6.56c-.677-.49-1.545-1.017-2.54-1.387A12.465 12.465 0 0 0 8.675 7.901c-3.519 3.523-4.625 8.94-2.725 13.561 1.42 3.454-.907 5.898-3.251 8.364-.83.874-1.664 1.748-2.335 2.674l10.583-9.466"
    />
  </svg>